<?xml version="1.0" encoding="UTF-8" standalone="no"?>

<!-- Created with PainterSVG V3.92 -->

<svg xmlns="http://www.w3.org/2000/svg" xmlns:xlink="http://www.w3.org/1999/xlink" xmlns:psvg="http://www.paintersvg.com/namespace.html" id="svg" width="1" height="1" viewBox="0 0 1 1">
  <defs>
    <linearGradient id="lineargradient1" x1="0.4482" y1="0.6557" x2="0.6632" y2="0.2844" gradientUnits="userSpaceOnUse" spreadMethod="pad">
      <stop offset="0" style="stop-color:#50;stop-opacity:1" />
      <stop offset="0.2094" style="stop-color:#b1865;stop-opacity:1" />
      <stop offset="1" style="stop-color:#3977b7;stop-opacity:1" />
    </linearGradient>
  </defs>
  <g data-template="dark-sun">
    <path id="path4" d=" M 0.5,0.05 0.5221,0.2761 0.5878,0.0586 0.5653,0.2847 0.6722,0.0843 0.6061,0.3016 0.75,0.1258 0.6427,0.3261 0.8182,0.1818 0.6739,0.3573 0.8742,0.25 0.6984,0.3939 0.9157,0.3278 0.7153,0.4347 0.9414,0.4122 0.7239,0.4779 0.95,0.5 0.7239,0.5221 0.9414,0.5878 0.7153,0.5653 0.9157,0.6722 0.6984,0.6061 0.8742,0.75 0.6739,0.6427 0.8182,0.8182 0.6427,0.6739 0.75,0.8742 0.6061,0.6984 0.6722,0.9157 0.5653,0.7153 0.5878,0.9414 0.5221,0.7239 0.5,0.95 0.4779,0.7239 0.4122,0.9414 0.4347,0.7153 0.3278,0.9157 0.3939,0.6984 0.25,0.8742 0.3573,0.6739 0.1818,0.8182 0.3261,0.6427 0.1258,0.75 0.3016,0.6061 0.0843,0.6722 0.2847,0.5653 0.0586,0.5878 0.2761,0.5221 0.05,0.5 0.2761,0.4779 0.0586,0.4122 0.2847,0.4347 0.0843,0.3278 0.3016,0.3939 0.1258,0.25 0.3261,0.3573 0.1818,0.1818 0.3573,0.3261 0.25,0.1258 0.3939,0.3016 0.3278,0.0843 0.4347,0.2847 0.4122,0.0586 0.4779,0.2761 0.5,0.05 Z" style="fill:url(#lineargradient1);fill-opacity:1;stroke:#990D0D;stroke-width:0.02;stroke-opacity:1;stroke-linecap:butt;stroke-linejoin:round;stroke-miterlimit:4;stroke-dashoffset:0;" />
  </g>
</svg>