<?xml version="1.0" encoding="UTF-8" standalone="no"?>

<!-- Created with PainterSVG V3.92 -->

<svg style="background:#ffffff;" xmlns="http://www.w3.org/2000/svg" xmlns:xlink="http://www.w3.org/1999/xlink" xmlns:psvg="http://www.paintersvg.com/namespace.html" id="svg" width="512" height="512" viewBox="0 0 512 512">
  <defs></defs>
  <g psvg:layer="layer1">
    <g transform="matrix(1,0,0,1,13.3929,18.5135)">
      <path d=" M 242.9026,102.9142 250.2546,234.1138 357.4146,158.0602 259.4224,245.6099 385.6967,281.9722 256.1505,259.9452 306.452,381.3419 242.9026,266.325 179.3533,381.3419 229.6548,259.9452 100.1087,281.9722 226.3829,245.6099 128.3907,158.0602 235.5507,234.1138 242.9026,102.9142 Z" style="fill:#000000;fill-opacity:0.2833;stroke:none;" transform="matrix(1.42,0,0,1.42,-102.3147,-106.3352)" />
      <path d=" M 242.9026,102.9142 250.2546,234.1138 357.4146,158.0602 259.4224,245.6099 385.6967,281.9722 256.1505,259.9452 306.452,381.3419 242.9026,266.325 179.3533,381.3419 229.6548,259.9452 100.1087,281.9722 226.3829,245.6099 128.3907,158.0602 235.5507,234.1138 242.9026,102.9142 Z" style="fill:#000000;fill-opacity:0.2833;stroke:none;" transform="matrix(1.28,0,0,1.28,-68.604,-77.0788)" />
      <path d=" M 242.9026,102.9142 250.2546,234.1138 357.4146,158.0602 259.4224,245.6099 385.6967,281.9722 256.1505,259.9452 306.452,381.3419 242.9026,266.325 179.3533,381.3419 229.6548,259.9452 100.1087,281.9722 226.3829,245.6099 128.3907,158.0602 235.5507,234.1138 242.9026,102.9142 Z" style="fill:#000000;fill-opacity:0.2833;stroke:none;" transform="matrix(1.1867,0,0,1.1867,-46.2287,-59.1216)" />
      <path d=" M 242.9026,102.9142 250.2546,234.1138 357.4146,158.0602 259.4224,245.6099 385.6967,281.9722 256.1505,259.9452 306.452,381.3419 242.9026,266.325 179.3533,381.3419 229.6548,259.9452 100.1087,281.9722 226.3829,245.6099 128.3907,158.0602 235.5507,234.1138 242.9026,102.9142 Z" style="fill:#000000;fill-opacity:0.2833;stroke:none;" transform="matrix(1.1244,0,0,1.1244,-31.4103,-48.6974)" />
      <path d=" M 242.9026,102.9142 250.2546,234.1138 357.4146,158.0602 259.4224,245.6099 385.6967,281.9722 256.1505,259.9452 306.452,381.3419 242.9026,266.325 179.3533,381.3419 229.6548,259.9452 100.1087,281.9722 226.3829,245.6099 128.3907,158.0602 235.5507,234.1138 242.9026,102.9142 Z" style="fill:#000000;fill-opacity:0.2833;stroke:none;" transform="matrix(1.083,0,0,1.083,-21.63,-43.295)" />
      <path d=" M 242.9026,102.9142 250.2546,234.1138 357.4146,158.0602 259.4224,245.6099 385.6967,281.9722 256.1505,259.9452 306.452,381.3419 242.9026,266.325 179.3533,381.3419 229.6548,259.9452 100.1087,281.9722 226.3829,245.6099 128.3907,158.0602 235.5507,234.1138 242.9026,102.9142 Z" style="fill:#000000;fill-opacity:0.2833;stroke:none;" transform="matrix(1.0553,0,0,1.0553,-15.2083,-41.2406)" />
      <path id="path4" d=" M 242.9026,102.9142 250.2546,234.1138 357.4146,158.0602 259.4224,245.6099 385.6967,281.9722 256.1505,259.9452 306.452,381.3419 242.9026,266.325 179.3533,381.3419 229.6548,259.9452 100.1087,281.9722 226.3829,245.6099 128.3907,158.0602 235.5507,234.1138 242.9026,102.9142 Z" style="fill:none;stroke:#500000;stroke-width:1;stroke-opacity:1;stroke-linecap:butt;stroke-linejoin:miter;stroke-miterlimit:4;stroke-dashoffset:0;" />
    </g>
  </g>
</svg>